<?xml version="1.0" encoding="UTF-8" standalone="no"?>
<svg
   xmlns:dc="http://purl.org/dc/elements/1.1/"
   xmlns:cc="http://creativecommons.org/ns#"
   xmlns:rdf="http://www.w3.org/1999/02/22-rdf-syntax-ns#"
   xmlns:svg="http://www.w3.org/2000/svg"
   xmlns="http://www.w3.org/2000/svg"
   viewBox="0 0 1122.52 1587.4"
   height="1587.4"
   width="1122.52"
   xml:space="preserve"
   id="svg2"
   version="1.1"><metadata
     id="metadata8"><rdf:RDF><cc:Work
         rdf:about=""><dc:format>image/svg+xml</dc:format><dc:type
           rdf:resource="http://purl.org/dc/dcmitype/StillImage" /></cc:Work></rdf:RDF></metadata><defs
     id="defs6"><clipPath
       id="clipPath136"
       clipPathUnits="userSpaceOnUse"><path
         id="path134"
         d="M 0,1190.55 H 841.89 V 0 H 0 Z" /></clipPath><clipPath
       id="clipPath144"
       clipPathUnits="userSpaceOnUse"><path
         id="path142"
         d="M 332.319,637.077 H 514.5 V 592.009 H 332.319 Z" /></clipPath></defs><g
     transform="matrix(1.3333333,0,0,-1.3333333,0,1587.4)"
     id="g10"><path
       id="path12"
       style="fill:#000000;fill-opacity:1;fill-rule:nonzero;stroke:none"
       d="M 0,0 H 841.89 V 1190.55 H 0 Z" /><g
       transform="translate(494.9811,630.5769)"
       id="g14"><path
         id="path16"
         style="fill:#dc1c43;fill-opacity:1;fill-rule:nonzero;stroke:none"
         d="M 0,0 346.909,-58.418 V -45.46 L -4.402,7.606 Z" /></g><g
       transform="translate(499.2282,623.3229)"
       id="g18"><path
         id="path20"
         style="fill:#ee7d22;fill-opacity:1;fill-rule:nonzero;stroke:none"
         d="m 0,0 342.661,-63.04 v 11.766 L -4.292,7.232 Z" /></g><g
       transform="translate(504.6363,614.2977)"
       id="g22"><path
         id="path24"
         style="fill:#fdeb02;fill-opacity:1;fill-rule:nonzero;stroke:none"
         d="m 0,0 337.253,-68.373 v 14.329 L -5.441,9.025 Z" /></g><g
       transform="translate(509.0274,606.6477)"
       id="g26"><path
         id="path28"
         style="fill:#089146;fill-opacity:1;fill-rule:nonzero;stroke:none"
         d="m 0,0 332.862,-72.657 v 11.842 L -4.46,7.683 Z" /></g><g
       transform="translate(513.9144,598.4253)"
       id="g30"><path
         id="path32"
         style="fill:#1c9dd9;fill-opacity:1;fill-rule:nonzero;stroke:none"
         d="m 0,0 327.975,-77.57 v 13.106 L -4.887,8.189 Z" /></g><g
       transform="translate(518.5719,590.5935)"
       id="g34"><path
         id="path36"
         style="fill:#ab4280;fill-opacity:1;fill-rule:nonzero;stroke:none"
         d="M 0,0 323.318,-81.759 V -69.84 L -4.658,7.81 Z" /></g><g
       transform="translate(0,518.3371)"
       id="g38"><path
         id="path40"
         style="fill:#ffffff;fill-opacity:1;fill-rule:nonzero;stroke:none"
         d="m 0,0 v -5.207 l 332.32,87.441 2.641,5.534 z" /></g><g
       transform="translate(494.9362,637.0774)"
       id="g42"><path
         id="path44"
         style="fill:none;stroke:#ffffff;stroke-width:1;stroke-linecap:butt;stroke-linejoin:miter;stroke-miterlimit:10;stroke-dasharray:none;stroke-opacity:1"
         d="M 0,0 -163.05,-32.898" /></g><g
       transform="translate(496.0459,634.9312)"
       id="g46"><path
         id="path48"
         style="fill:none;stroke:#ffffff;stroke-width:1;stroke-linecap:butt;stroke-linejoin:miter;stroke-miterlimit:10;stroke-dasharray:none;stroke-opacity:1"
         d="M 0,0 -164.239,-30.902" /></g><g
       transform="translate(497.1555,632.7851)"
       id="g50"><path
         id="path52"
         style="fill:none;stroke:#ffffff;stroke-width:1;stroke-linecap:butt;stroke-linejoin:miter;stroke-miterlimit:10;stroke-dasharray:none;stroke-opacity:1"
         d="M 0,0 -165.428,-28.906" /></g><g
       transform="translate(498.2652,630.639)"
       id="g54"><path
         id="path56"
         style="fill:none;stroke:#ffffff;stroke-width:1;stroke-linecap:butt;stroke-linejoin:miter;stroke-miterlimit:10;stroke-dasharray:none;stroke-opacity:1"
         d="M 0,0 -166.616,-26.911" /></g><g
       transform="translate(499.3748,628.4928)"
       id="g58"><path
         id="path60"
         style="fill:none;stroke:#ffffff;stroke-width:1;stroke-linecap:butt;stroke-linejoin:miter;stroke-miterlimit:10;stroke-dasharray:none;stroke-opacity:1"
         d="M 0,0 -167.805,-24.915" /></g><g
       transform="translate(500.4845,626.3467)"
       id="g62"><path
         id="path64"
         style="fill:none;stroke:#ffffff;stroke-width:1;stroke-linecap:butt;stroke-linejoin:miter;stroke-miterlimit:10;stroke-dasharray:none;stroke-opacity:1"
         d="M 0,0 -168.994,-22.919" /></g><g
       transform="translate(501.5942,624.2006)"
       id="g66"><path
         id="path68"
         style="fill:none;stroke:#ffffff;stroke-width:1;stroke-linecap:butt;stroke-linejoin:miter;stroke-miterlimit:10;stroke-dasharray:none;stroke-opacity:1"
         d="M 0,0 -170.183,-20.924" /></g><g
       transform="translate(502.7039,622.0544)"
       id="g70"><path
         id="path72"
         style="fill:none;stroke:#ffffff;stroke-width:1;stroke-linecap:butt;stroke-linejoin:miter;stroke-miterlimit:10;stroke-dasharray:none;stroke-opacity:1"
         d="M 0,0 -171.371,-18.928" /></g><g
       transform="translate(503.8135,619.9083)"
       id="g74"><path
         id="path76"
         style="fill:none;stroke:#ffffff;stroke-width:1;stroke-linecap:butt;stroke-linejoin:miter;stroke-miterlimit:10;stroke-dasharray:none;stroke-opacity:1"
         d="M 0,0 -172.56,-16.932" /></g><g
       transform="translate(504.9232,617.7621)"
       id="g78"><path
         id="path80"
         style="fill:none;stroke:#ffffff;stroke-width:1;stroke-linecap:butt;stroke-linejoin:miter;stroke-miterlimit:10;stroke-dasharray:none;stroke-opacity:1"
         d="M 0,0 -173.749,-14.937" /></g><g
       transform="translate(506.0328,615.616)"
       id="g82"><path
         id="path84"
         style="fill:none;stroke:#ffffff;stroke-width:1;stroke-linecap:butt;stroke-linejoin:miter;stroke-miterlimit:10;stroke-dasharray:none;stroke-opacity:1"
         d="M 0,0 -174.937,-12.941" /></g><g
       transform="translate(507.1425,613.4698)"
       id="g86"><path
         id="path88"
         style="fill:none;stroke:#ffffff;stroke-width:1;stroke-linecap:butt;stroke-linejoin:miter;stroke-miterlimit:10;stroke-dasharray:none;stroke-opacity:1"
         d="M 0,0 -176.126,-10.945" /></g><g
       transform="translate(508.2522,611.3237)"
       id="g90"><path
         id="path92"
         style="fill:none;stroke:#ffffff;stroke-width:1;stroke-linecap:butt;stroke-linejoin:miter;stroke-miterlimit:10;stroke-dasharray:none;stroke-opacity:1"
         d="M 0,0 -177.315,-8.949" /></g><g
       transform="translate(509.3618,609.1776)"
       id="g94"><path
         id="path96"
         style="fill:none;stroke:#ffffff;stroke-width:1;stroke-linecap:butt;stroke-linejoin:miter;stroke-miterlimit:10;stroke-dasharray:none;stroke-opacity:1"
         d="M 0,0 -178.504,-6.954" /></g><g
       transform="translate(510.4715,607.0315)"
       id="g98"><path
         id="path100"
         style="fill:none;stroke:#ffffff;stroke-width:1;stroke-linecap:butt;stroke-linejoin:miter;stroke-miterlimit:10;stroke-dasharray:none;stroke-opacity:1"
         d="M 0,0 -179.692,-4.958" /></g><g
       transform="translate(511.5812,604.8853)"
       id="g102"><path
         id="path104"
         style="fill:none;stroke:#ffffff;stroke-width:1;stroke-linecap:butt;stroke-linejoin:miter;stroke-miterlimit:10;stroke-dasharray:none;stroke-opacity:1"
         d="M 0,0 -180.881,-2.962" /></g><g
       transform="translate(512.6909,602.7392)"
       id="g106"><path
         id="path108"
         style="fill:none;stroke:#ffffff;stroke-width:1;stroke-linecap:butt;stroke-linejoin:miter;stroke-miterlimit:10;stroke-dasharray:none;stroke-opacity:1"
         d="M 0,0 -182.07,-0.967" /></g><g
       transform="translate(513.8005,600.5931)"
       id="g110"><path
         id="path112"
         style="fill:none;stroke:#ffffff;stroke-width:1;stroke-linecap:butt;stroke-linejoin:miter;stroke-miterlimit:10;stroke-dasharray:none;stroke-opacity:1"
         d="M 0,0 -183.259,1.029" /></g><g
       transform="translate(514.9102,598.4469)"
       id="g114"><path
         id="path116"
         style="fill:none;stroke:#ffffff;stroke-width:1;stroke-linecap:butt;stroke-linejoin:miter;stroke-miterlimit:10;stroke-dasharray:none;stroke-opacity:1"
         d="M 0,0 -184.447,3.025" /></g><g
       transform="translate(516.0198,596.3008)"
       id="g118"><path
         id="path120"
         style="fill:none;stroke:#ffffff;stroke-width:1;stroke-linecap:butt;stroke-linejoin:miter;stroke-miterlimit:10;stroke-dasharray:none;stroke-opacity:1"
         d="M 0,0 -185.636,5.02" /></g><g
       transform="translate(517.1295,594.1547)"
       id="g122"><path
         id="path124"
         style="fill:none;stroke:#ffffff;stroke-width:1;stroke-linecap:butt;stroke-linejoin:miter;stroke-miterlimit:10;stroke-dasharray:none;stroke-opacity:1"
         d="M 0,0 -186.825,7.016" /></g><g
       transform="translate(518.2391,592.0085)"
       id="g126"><path
         id="path128"
         style="fill:none;stroke:#ffffff;stroke-width:1;stroke-linecap:butt;stroke-linejoin:miter;stroke-miterlimit:10;stroke-dasharray:none;stroke-opacity:1"
         d="M 0,0 -188.013,9.012" /></g><g
       id="g130"><g
         clip-path="url(#clipPath136)"
         id="g132"><g
           id="g138"><g
             id="g140" /><g
             id="g152"><g
               style="opacity:0.82000703"
               id="g150"
               clip-path="url(#clipPath144)"><g
                 id="g148"
                 transform="translate(332.3195,601.7167)"><path
                   id="path146"
                   style="fill:#ffffff;fill-opacity:1;fill-rule:evenodd;stroke:none"
                   d="M 0,0 158.832,35.361 182.181,-9.708 Z" /></g></g></g></g><g
           transform="translate(420.9095,797.7961)"
           id="g154"><path
             id="path156"
             style="fill:none;stroke:#f1f1f2;stroke-width:6;stroke-linecap:round;stroke-linejoin:round;stroke-miterlimit:5;stroke-dasharray:none;stroke-opacity:1"
             d="m 0,0 c -16.802,-41.194 -26.936,-68.139 -45.642,-108.108 11.469,-12.158 25.547,-26.316 48.41,-42.306 -24.58,10.114 -41.346,20.269 -53.876,30.807 -23.941,-49.957 -61.449,-121.117 -137.566,-257.884 59.825,34.539 106.2,55.832 149.42,63.957 -1.856,7.982 -2.911,16.616 -2.839,25.625 l 0.071,1.916 c 0.949,38.329 20.887,67.803 44.506,65.802 23.619,-2.001 41.978,-34.714 41.029,-73.042 -0.179,-7.212 -0.992,-14.15 -2.414,-20.585 42.751,-8.363 88.63,-29.602 147.646,-63.673 -11.637,21.425 -22.023,40.737 -31.942,59.13 -15.624,12.109 -31.921,27.87 -65.163,44.932 22.848,-5.937 39.208,-12.786 51.96,-20.443 C 42.75,-106.108 34.584,-81.158 0,0 Z" /></g></g></g></g></svg>